# xmcd
#
# Track frame offsets:
#	150
#	39844
#	67367
#	87380
#	103084
#
# Disc length: 1961 seconds
#
# Revision: 0
# Processed by: cddbd v1.5.2PL0 Copyright (c) Steve Scherf et al.
# Submitted via: audiograbber 1.83.01
#
DISCID=4007a705
DTITLE=Various Artist - Kings Of Drums Vol.2 - Jazz Party 18
DYEAR=1972
DGENRE=Jazz 
TTITLE0=Art Blakey Percussion Ensemble - Oscalypso 
TTITLE1=Sam Woodyard, Duke Ellington And His Orchestra - Hi Fi Fo Fum
TTITLE2=Joe Morello, Dave Brubeck Quartet - C Jam Blues 
TTITLE3=Lionel Hampton And His Orchestra - Drums Fight
TTITLE4=Sam Woodyard, Jimmy Johnson , Duke Ellington And His Orchestra - Dual F
TTITLE4=uel 
EXTD=
EXTT0=
EXTT1=
EXTT2=
EXTT3=
EXTT4=
PLAYORDER=
